<svg width="192" height="160" viewBox="0 0 192 160" xmlns="http://www.w3.org/2000/svg" xmlns:xlink="http://www.w3.org/1999/xlink"><title>Frontend Cafe</title><use xlink:href="#a" transform="translate(0 56)" fill="#F7FBFF"/><use xlink:href="#b" transform="translate(38)" fill="#F7FBFF"/><defs><path id="a" fill-rule="evenodd" d="M29.538 0l7.385 7.5L14.77 30l22.154 22.5-7.385 7.5L0 30 29.538 0zm132.924 0l-7.385 7.5L177.231 30l-22.154 22.5 7.385 7.5L192 30 162.462 0z"/><path id="b" fill-rule="evenodd" d="M13.045 0a.817.817 0 0 0-.785.593L8.286 14.546h99.428L103.74.593a.816.816 0 0 0-.785-.593h-89.91zM0 17.44c0-.451.366-.817.817-.817h114.366c.451 0 .817.366.817.817v13.729H0v-13.73zm107.9 21.927L91.143 160H24.857L6.214 33.247l7.786.468V56a3 3 0 1 0 6 0V40a3 3 0 1 1 6 0 3 3 0 1 0 6 0v-5.201l75.9 4.568zM54.634 58.182H81.82v16.364H54.634v10.909h16.312v16.363H54.634v21.818H38.32V58.182h16.313z"/></defs></svg>
